# ProBuilder 6.0.5
# https://unity3d.com/unity/features/worldbuilding/probuilder
# 20.07.2025 22:30:02

mtllib ./BladeTrap.mtl
o BladeTrap

g Blade_2
v -28.69855 5.843677 1.03362
v -28.69855 5.843677 1.01338
v -28.69855 5.882894 1.03362
v -28.69855 5.882894 1.01338
v -28.68984 5.882894 1.03362
v -28.68984 5.882894 1.01338
v -28.68984 5.92211 1.03362
v -28.68984 5.92211 1.01338
v -28.68113 5.92211 1.03362
v -28.68113 5.92211 1.01338
v -28.68113 5.961327 1.03362
v -28.68113 5.961327 1.01338
v -28.67242 5.961327 1.03362
v -28.67242 5.961327 1.01338
v -28.67242 6.000543 1.03362
v -28.67242 6.000543 1.01338
v -28.66371 6.000543 1.03362
v -28.66371 6.000543 1.01338
v -28.66371 6.039759 1.03362
v -28.66371 6.039759 1.01338
v -28.655 6.039759 1.03362
v -28.655 6.039759 1.01338
v -28.655 6.078976 1.03362
v -28.655 6.078976 1.01338
v -28.64629 6.078976 1.03362
v -28.64629 6.078976 1.01338
v -28.64629 6.118192 1.03362
v -28.64629 6.118192 1.01338
v -28.63758 6.118192 1.03362
v -28.63758 6.118192 1.01338
v -28.63758 6.157408 1.03362
v -28.63758 6.157408 1.01338
v -28.62887 6.157408 1.03362
v -28.62887 6.157408 1.01338
v -28.62887 6.196625 1.03362
v -28.62887 6.196625 1.01338
v -28.62016 6.196625 1.03362
v -28.62016 6.196625 1.01338
v -28.62016 6.235841 1.03362
v -28.62016 6.235841 1.01338
v -28.61145 6.235841 1.03362
v -28.61145 6.235841 1.01338
v -28.68984 5.843677 1.01338
v -28.68113 5.843677 1.01338
v -28.67242 5.843677 1.01338
v -28.66371 5.843677 1.01338
v -28.655 5.843677 1.01338
v -28.64629 5.843677 1.01338
v -28.63758 5.843677 1.01338
v -28.62887 5.843677 1.01338
v -28.62016 5.843677 1.01338
v -28.61145 5.843677 1.01338
v -28.68984 5.843677 1.03362
v -28.68113 5.843677 1.03362
v -28.67242 5.843677 1.03362
v -28.66371 5.843677 1.03362
v -28.655 5.843677 1.03362
v -28.64629 5.843677 1.03362
v -28.63758 5.843677 1.03362
v -28.62887 5.843677 1.03362
v -28.62016 5.843677 1.03362
v -28.61145 5.843677 1.03362

vt 0.1012015 -0.09804099
vt -0.1012015 -0.09804099
vt 0.1012015 -0.07843279
vt -0.1012015 -0.07843279
vt -0.1012015 0.04355335
vt 0.1012015 0.04355335
vt -0.1012015 0.03484268
vt 0.1012015 0.03484268
vt 0.1012015 -0.0588246
vt -0.1012015 -0.0588246
vt -0.1012015 0.02613201
vt 0.1012015 0.02613201
vt 0.1012015 -0.0392164
vt -0.1012015 -0.0392164
vt -0.1012015 0.01742134
vt 0.1012015 0.01742134
vt 0.1012015 -0.0196082
vt -0.1012015 -0.0196082
vt -0.1012015 0.00871067
vt 0.1012015 0.00871067
vt 0.1012015 0
vt -0.1012015 0
vt 0.1012015 0.0196082
vt -0.1012015 0.0196082
vt -0.1012015 -0.008710672
vt 0.1012015 -0.008710672
vt 0.1012015 0.0392164
vt -0.1012015 0.0392164
vt -0.1012015 -0.01742134
vt 0.1012015 -0.01742134
vt 0.1012015 0.0588246
vt -0.1012015 0.0588246
vt -0.1012015 -0.02613201
vt 0.1012015 -0.02613201
vt 0.1012015 0.07843279
vt -0.1012015 0.07843279
vt -0.1012015 -0.03484268
vt 0.1012015 -0.03484268
vt 0.1012015 0.09804099
vt -0.1012015 0.09804099
vt -0.1012015 -0.04355335
vt 0.1012015 -0.04355335
vt 0.04355335 -0.09804099
vt 0.03484268 -0.09804099
vt 0.04355335 -0.07843279
vt 0.03484268 -0.07843279
vt 0.02613201 -0.09804099
vt 0.02613201 -0.0588246
vt 0.03484268 -0.0588246
vt 0.01742134 -0.09804099
vt 0.01742134 -0.0392164
vt 0.02613201 -0.0392164
vt 0.008710671 -0.09804099
vt 0.008710671 -0.0196082
vt 0.01742134 -0.0196082
vt 0 -0.09804099
vt 0 0
vt 0.008710671 0
vt -0.008710671 -0.09804099
vt -0.008710671 0.0196082
vt 0 0.0196082
vt -0.01742134 -0.09804099
vt -0.01742134 0.03921639
vt -0.008710671 0.03921639
vt -0.02613201 -0.09804099
vt -0.02613201 0.05882459
vt -0.01742134 0.05882459
vt -0.03484268 -0.09804099
vt -0.03484268 0.07843279
vt -0.02613201 0.07843279
vt -0.04355335 -0.09804099
vt -0.04355335 0.09804099
vt -0.03484268 0.09804099
vt -0.04355335 -0.07843279
vt -0.03484268 -0.07843279
vt -0.02613201 -0.0588246
vt -0.03484268 -0.0588246
vt -0.01742134 -0.0392164
vt -0.02613201 -0.0392164
vt -0.008710671 -0.0196082
vt -0.01742134 -0.0196082
vt -0.008710671 0
vt 0.008710671 0.0196082
vt 0.01742134 0.03921639
vt 0.008710671 0.03921639
vt 0.02613201 0.05882459
vt 0.01742134 0.05882459
vt 0.03484268 0.07843279
vt 0.02613201 0.07843279
vt 0.04355335 0.09804099
vt 0.03484268 0.09804099

vn -1 0 -1.192093E-07
vn 0 2 0
vn 1.192093E-08 0 -0.1
vn -1.192093E-08 0 0.1
vn 1 0 1.192093E-07

usemtl ProBuilderDefault
f 6/46/3 8/49/3 10/48/3
f 10/48/3 12/52/3 14/51/3
f 14/51/3 16/55/3 18/54/3
f 18/54/3 20/58/3 22/57/3
f 22/57/3 24/61/3 26/60/3
f 26/60/3 28/64/3 30/63/3
f 30/63/3 32/67/3 34/66/3
f 34/66/3 36/70/3 38/69/3
f 38/69/3 40/73/3 42/72/3
f 9/76/4 7/77/4 5/75/4
f 13/78/4 11/79/4 9/76/4
f 17/80/4 15/81/4 13/78/4
f 21/57/4 19/82/4 17/80/4
f 25/83/4 23/61/4 21/57/4
f 29/84/4 27/85/4 25/83/4
f 33/86/4 31/87/4 29/84/4
f 37/88/4 35/89/4 33/86/4
f 41/90/4 39/91/4 37/88/4
f 4/4/1 2/2/1 1/1/1
f 1/1/1 3/3/1 4/4/1
f 6/8/2 4/6/2 3/5/2
f 3/5/2 5/7/2 6/8/2
f 8/10/1 6/4/1 5/3/1
f 5/3/1 7/9/1 8/10/1
f 10/12/2 8/8/2 7/7/2
f 7/7/2 9/11/2 10/12/2
f 12/14/1 10/10/1 9/9/1
f 9/9/1 11/13/1 12/14/1
f 14/16/2 12/12/2 11/11/2
f 11/11/2 13/15/2 14/16/2
f 16/18/1 14/14/1 13/13/1
f 13/13/1 15/17/1 16/18/1
f 18/20/2 16/16/2 15/15/2
f 15/15/2 17/19/2 18/20/2
f 20/22/1 18/18/1 17/17/1
f 17/17/1 19/21/1 20/22/1
f 22/21/2 20/20/2 19/19/2
f 19/19/2 21/22/2 22/21/2
f 24/24/1 22/22/1 21/21/1
f 21/21/1 23/23/1 24/24/1
f 26/26/2 24/21/2 23/22/2
f 23/22/2 25/25/2 26/26/2
f 28/28/1 26/24/1 25/23/1
f 25/23/1 27/27/1 28/28/1
f 30/30/2 28/26/2 27/25/2
f 27/25/2 29/29/2 30/30/2
f 32/32/1 30/28/1 29/27/1
f 29/27/1 31/31/1 32/32/1
f 34/34/2 32/30/2 31/29/2
f 31/29/2 33/33/2 34/34/2
f 36/36/1 34/32/1 33/31/1
f 33/31/1 35/35/1 36/36/1
f 38/38/2 36/34/2 35/33/2
f 35/33/2 37/37/2 38/38/2
f 40/40/1 38/36/1 37/35/1
f 37/35/1 39/39/1 40/40/1
f 42/42/2 40/38/2 39/37/2
f 39/37/2 41/41/2 42/42/2
f 6/46/3 43/44/3 2/43/3
f 2/43/3 4/45/3 6/46/3
f 10/48/3 44/47/3 43/44/3
f 43/44/3 6/46/3 10/48/3
f 14/51/3 45/50/3 44/47/3
f 44/47/3 10/48/3 14/51/3
f 18/54/3 46/53/3 45/50/3
f 45/50/3 14/51/3 18/54/3
f 22/57/3 47/56/3 46/53/3
f 46/53/3 18/54/3 22/57/3
f 26/60/3 48/59/3 47/56/3
f 47/56/3 22/57/3 26/60/3
f 30/63/3 49/62/3 48/59/3
f 48/59/3 26/60/3 30/63/3
f 34/66/3 50/65/3 49/62/3
f 49/62/3 30/63/3 34/66/3
f 38/69/3 51/68/3 50/65/3
f 50/65/3 34/66/3 38/69/3
f 42/72/3 52/71/3 51/68/3
f 51/68/3 38/69/3 42/72/3
f 3/74/4 1/71/4 53/68/4
f 53/68/4 5/75/4 3/74/4
f 5/75/4 53/68/4 54/65/4
f 54/65/4 9/76/4 5/75/4
f 9/76/4 54/65/4 55/62/4
f 55/62/4 13/78/4 9/76/4
f 13/78/4 55/62/4 56/59/4
f 56/59/4 17/80/4 13/78/4
f 17/80/4 56/59/4 57/56/4
f 57/56/4 21/57/4 17/80/4
f 21/57/4 57/56/4 58/53/4
f 58/53/4 25/83/4 21/57/4
f 25/83/4 58/53/4 59/50/4
f 59/50/4 29/84/4 25/83/4
f 29/84/4 59/50/4 60/47/4
f 60/47/4 33/86/4 29/84/4
f 33/86/4 60/47/4 61/44/4
f 61/44/4 37/88/4 33/86/4
f 37/88/4 61/44/4 62/43/4
f 62/43/4 41/90/4 37/88/4
f 41/40/5 62/2/5 52/1/5
f 52/1/5 42/39/5 41/40/5

g Blade_3
v -28.74211 5.76824 1.03362
v -28.74211 5.76824 1.01338
v -28.77607 5.787848 1.03362
v -28.77607 5.787848 1.01338
v -28.77172 5.795393 1.03362
v -28.77172 5.795393 1.01338
v -28.80568 5.815001 1.03362
v -28.80568 5.815001 1.01338
v -28.80132 5.822544 1.03362
v -28.80132 5.822544 1.01338
v -28.83529 5.842153 1.03362
v -28.83529 5.842153 1.01338
v -28.83093 5.849696 1.03362
v -28.83093 5.849696 1.01338
v -28.86489 5.869304 1.03362
v -28.86489 5.869304 1.01338
v -28.86054 5.876848 1.03362
v -28.86054 5.876848 1.01338
v -28.8945 5.896456 1.03362
v -28.8945 5.896456 1.01338
v -28.89014 5.904 1.03362
v -28.89014 5.904 1.01338
v -28.92411 5.923608 1.03362
v -28.92411 5.923608 1.01338
v -28.91975 5.931152 1.03362
v -28.91975 5.931152 1.01338
v -28.95371 5.95076 1.03362
v -28.95371 5.95076 1.01338
v -28.94936 5.958303 1.03362
v -28.94936 5.958303 1.01338
v -28.98332 5.977912 1.03362
v -28.98332 5.977912 1.01338
v -28.97897 5.985456 1.03362
v -28.97897 5.985456 1.01338
v -29.01293 6.005064 1.03362
v -29.01293 6.005064 1.01338
v -29.00857 6.012607 1.03362
v -29.00857 6.012607 1.01338
v -29.04254 6.032216 1.03362
v -29.04254 6.032216 1.01338
v -29.03818 6.039759 1.03362
v -29.03818 6.039759 1.01338
v -28.73775 5.775784 1.01338
v -28.7334 5.783328 1.01338
v -28.72904 5.790872 1.01338
v -28.72469 5.798415 1.01338
v -28.72033 5.805959 1.01338
v -28.71598 5.813502 1.01338
v -28.71162 5.821046 1.01338
v -28.70727 5.82859 1.01338
v -28.70291 5.836133 1.01338
v -28.69855 5.843677 1.01338
v -28.73775 5.775784 1.03362
v -28.7334 5.783328 1.03362
v -28.72904 5.790872 1.03362
v -28.72469 5.798415 1.03362
v -28.72033 5.805959 1.03362
v -28.71598 5.813502 1.03362
v -28.71162 5.821046 1.03362
v -28.70727 5.82859 1.03362
v -28.70291 5.836133 1.03362
v -28.69855 5.843677 1.03362

vt 0.1012015 -0.09804099
vt -0.1012015 -0.09804099
vt 0.1012015 -0.07843279
vt -0.1012015 -0.07843279
vt -0.1012015 0.04355335
vt 0.1012015 0.04355335
vt -0.1012015 0.03484268
vt 0.1012015 0.03484268
vt 0.1012015 -0.0588246
vt -0.1012015 -0.0588246
vt -0.1012015 0.02613201
vt 0.1012015 0.02613201
vt 0.1012015 -0.0392164
vt -0.1012015 -0.0392164
vt -0.1012015 0.01742134
vt 0.1012015 0.01742134
vt 0.1012015 -0.0196082
vt -0.1012015 -0.0196082
vt -0.1012015 0.00871067
vt 0.1012015 0.00871067
vt 0.1012015 0
vt -0.1012015 0
vt 0.1012015 0.0196082
vt -0.1012015 0.0196082
vt -0.1012015 -0.008710672
vt 0.1012015 -0.008710672
vt 0.1012015 0.0392164
vt -0.1012015 0.0392164
vt -0.1012015 -0.01742134
vt 0.1012015 -0.01742134
vt 0.1012015 0.0588246
vt -0.1012015 0.0588246
vt -0.1012015 -0.02613201
vt 0.1012015 -0.02613201
vt 0.1012015 0.07843279
vt -0.1012015 0.07843279
vt -0.1012015 -0.03484268
vt 0.1012015 -0.03484268
vt 0.1012015 0.09804099
vt -0.1012015 0.09804099
vt -0.1012015 -0.04355335
vt 0.1012015 -0.04355335
vt 0.04355335 -0.09804099
vt 0.03484268 -0.09804099
vt 0.04355335 -0.07843279
vt 0.03484268 -0.07843279
vt 0.02613201 -0.09804099
vt 0.02613201 -0.0588246
vt 0.03484268 -0.0588246
vt 0.01742134 -0.09804099
vt 0.01742134 -0.0392164
vt 0.02613201 -0.0392164
vt 0.008710671 -0.09804099
vt 0.008710671 -0.0196082
vt 0.01742134 -0.0196082
vt 0 -0.09804099
vt 0 0
vt 0.008710671 0
vt -0.008710671 -0.09804099
vt -0.008710671 0.0196082
vt 0 0.0196082
vt -0.01742134 -0.09804099
vt -0.01742134 0.03921639
vt -0.008710671 0.03921639
vt -0.02613201 -0.09804099
vt -0.02613201 0.05882459
vt -0.01742134 0.05882459
vt -0.03484268 -0.09804099
vt -0.03484268 0.07843279
vt -0.02613201 0.07843279
vt -0.04355335 -0.09804099
vt -0.04355335 0.09804099
vt -0.03484268 0.09804099
vt -0.04355335 -0.07843279
vt -0.03484268 -0.07843279
vt -0.02613201 -0.0588246
vt -0.03484268 -0.0588246
vt -0.01742134 -0.0392164
vt -0.02613201 -0.0392164
vt -0.008710671 -0.0196082
vt -0.01742134 -0.0196082
vt -0.008710671 0
vt 0.008710671 0.0196082
vt 0.01742134 0.03921639
vt 0.008710671 0.03921639
vt 0.02613201 0.05882459
vt 0.01742134 0.05882459
vt 0.03484268 0.07843279
vt 0.02613201 0.07843279
vt 0.04355335 0.09804099
vt 0.03484268 0.09804099

vn -0.5 -0.8660255 -1.192093E-07
vn -1.732051 0.9999999 0
vn 1.192093E-08 0 -0.1
vn -1.192093E-08 0 0.1
vn 0.5 0.8660255 1.192093E-07

usemtl ProBuilderDefault
f 68/137/8 70/140/8 72/139/8
f 72/139/8 74/143/8 76/142/8
f 76/142/8 78/146/8 80/145/8
f 80/145/8 82/149/8 84/148/8
f 84/148/8 86/152/8 88/151/8
f 88/151/8 90/155/8 92/154/8
f 92/154/8 94/158/8 96/157/8
f 96/157/8 98/161/8 100/160/8
f 100/160/8 102/164/8 104/163/8
f 71/167/9 69/168/9 67/166/9
f 75/169/9 73/170/9 71/167/9
f 79/171/9 77/172/9 75/169/9
f 83/148/9 81/173/9 79/171/9
f 87/174/9 85/152/9 83/148/9
f 91/175/9 89/176/9 87/174/9
f 95/177/9 93/178/9 91/175/9
f 99/179/9 97/180/9 95/177/9
f 103/181/9 101/182/9 99/179/9
f 66/95/6 64/93/6 63/92/6
f 63/92/6 65/94/6 66/95/6
f 68/99/7 66/97/7 65/96/7
f 65/96/7 67/98/7 68/99/7
f 70/101/6 68/95/6 67/94/6
f 67/94/6 69/100/6 70/101/6
f 72/103/7 70/99/7 69/98/7
f 69/98/7 71/102/7 72/103/7
f 74/105/6 72/101/6 71/100/6
f 71/100/6 73/104/6 74/105/6
f 76/107/7 74/103/7 73/102/7
f 73/102/7 75/106/7 76/107/7
f 78/109/6 76/105/6 75/104/6
f 75/104/6 77/108/6 78/109/6
f 80/111/7 78/107/7 77/106/7
f 77/106/7 79/110/7 80/111/7
f 82/113/6 80/109/6 79/108/6
f 79/108/6 81/112/6 82/113/6
f 84/112/7 82/111/7 81/110/7
f 81/110/7 83/113/7 84/112/7
f 86/115/6 84/113/6 83/112/6
f 83/112/6 85/114/6 86/115/6
f 88/117/7 86/112/7 85/113/7
f 85/113/7 87/116/7 88/117/7
f 90/119/6 88/115/6 87/114/6
f 87/114/6 89/118/6 90/119/6
f 92/121/7 90/117/7 89/116/7
f 89/116/7 91/120/7 92/121/7
f 94/123/6 92/119/6 91/118/6
f 91/118/6 93/122/6 94/123/6
f 96/125/7 94/121/7 93/120/7
f 93/120/7 95/124/7 96/125/7
f 98/127/6 96/123/6 95/122/6
f 95/122/6 97/126/6 98/127/6
f 100/129/7 98/125/7 97/124/7
f 97/124/7 99/128/7 100/129/7
f 102/131/6 100/127/6 99/126/6
f 99/126/6 101/130/6 102/131/6
f 104/133/7 102/129/7 101/128/7
f 101/128/7 103/132/7 104/133/7
f 68/137/8 105/135/8 64/134/8
f 64/134/8 66/136/8 68/137/8
f 72/139/8 106/138/8 105/135/8
f 105/135/8 68/137/8 72/139/8
f 76/142/8 107/141/8 106/138/8
f 106/138/8 72/139/8 76/142/8
f 80/145/8 108/144/8 107/141/8
f 107/141/8 76/142/8 80/145/8
f 84/148/8 109/147/8 108/144/8
f 108/144/8 80/145/8 84/148/8
f 88/151/8 110/150/8 109/147/8
f 109/147/8 84/148/8 88/151/8
f 92/154/8 111/153/8 110/150/8
f 110/150/8 88/151/8 92/154/8
f 96/157/8 112/156/8 111/153/8
f 111/153/8 92/154/8 96/157/8
f 100/160/8 113/159/8 112/156/8
f 112/156/8 96/157/8 100/160/8
f 104/163/8 114/162/8 113/159/8
f 113/159/8 100/160/8 104/163/8
f 65/165/9 63/162/9 115/159/9
f 115/159/9 67/166/9 65/165/9
f 67/166/9 115/159/9 116/156/9
f 116/156/9 71/167/9 67/166/9
f 71/167/9 116/156/9 117/153/9
f 117/153/9 75/169/9 71/167/9
f 75/169/9 117/153/9 118/150/9
f 118/150/9 79/171/9 75/169/9
f 79/171/9 118/150/9 119/147/9
f 119/147/9 83/148/9 79/171/9
f 83/148/9 119/147/9 120/144/9
f 120/144/9 87/174/9 83/148/9
f 87/174/9 120/144/9 121/141/9
f 121/141/9 91/175/9 87/174/9
f 91/175/9 121/141/9 122/138/9
f 122/138/9 95/177/9 91/175/9
f 95/177/9 122/138/9 123/135/9
f 123/135/9 99/179/9 95/177/9
f 99/179/9 123/135/9 124/134/9
f 124/134/9 103/181/9 99/179/9
f 103/131/10 124/93/10 114/92/10
f 114/92/10 104/130/10 103/131/10

g Blade_4
v -28.69855 5.692804 1.05386
v -28.69855 5.692804 1.03362
v -28.73252 5.673196 1.05386
v -28.73252 5.673196 1.03362
v -28.73687 5.680739 1.05386
v -28.73687 5.680739 1.03362
v -28.77084 5.661131 1.05386
v -28.77084 5.661131 1.03362
v -28.77519 5.668675 1.05386
v -28.77519 5.668675 1.03362
v -28.80915 5.649066 1.05386
v -28.80915 5.649066 1.03362
v -28.81351 5.65661 1.05386
v -28.81351 5.65661 1.03362
v -28.84747 5.637002 1.05386
v -28.84747 5.637002 1.03362
v -28.85183 5.644546 1.05386
v -28.85183 5.644546 1.03362
v -28.88579 5.624938 1.05386
v -28.88579 5.624938 1.03362
v -28.89014 5.632481 1.05386
v -28.89014 5.632481 1.03362
v -28.92411 5.612873 1.05386
v -28.92411 5.612873 1.03362
v -28.92846 5.620417 1.05386
v -28.92846 5.620417 1.03362
v -28.96243 5.600808 1.05386
v -28.96243 5.600808 1.03362
v -28.96678 5.608352 1.05386
v -28.96678 5.608352 1.03362
v -29.00074 5.588744 1.05386
v -29.00074 5.588744 1.03362
v -29.0051 5.596287 1.05386
v -29.0051 5.596287 1.03362
v -29.03906 5.576679 1.05386
v -29.03906 5.576679 1.03362
v -29.04342 5.584223 1.05386
v -29.04342 5.584223 1.03362
v -29.07738 5.564615 1.05386
v -29.07738 5.564615 1.03362
v -29.08173 5.572158 1.05386
v -29.08173 5.572158 1.03362
v -28.70291 5.700347 1.03362
v -28.70727 5.707891 1.03362
v -28.71162 5.715435 1.03362
v -28.71598 5.722979 1.03362
v -28.72033 5.730522 1.03362
v -28.72469 5.738066 1.03362
v -28.72904 5.745609 1.03362
v -28.7334 5.753153 1.03362
v -28.73775 5.760697 1.03362
v -28.74211 5.76824 1.03362
v -28.70291 5.700347 1.05386
v -28.70727 5.707891 1.05386
v -28.71162 5.715435 1.05386
v -28.71598 5.722979 1.05386
v -28.72033 5.730522 1.05386
v -28.72469 5.738066 1.05386
v -28.72904 5.745609 1.05386
v -28.7334 5.753153 1.05386
v -28.73775 5.760697 1.05386
v -28.74211 5.76824 1.05386

vt 0.1012015 -0.09804099
vt -0.1012015 -0.09804099
vt 0.1012015 -0.07843279
vt -0.1012015 -0.07843279
vt -0.1012015 0.04355335
vt 0.1012015 0.04355335
vt -0.1012015 0.03484268
vt 0.1012015 0.03484268
vt 0.1012015 -0.0588246
vt -0.1012015 -0.0588246
vt -0.1012015 0.02613201
vt 0.1012015 0.02613201
vt 0.1012015 -0.0392164
vt -0.1012015 -0.0392164
vt -0.1012015 0.01742134
vt 0.1012015 0.01742134
vt 0.1012015 -0.0196082
vt -0.1012015 -0.0196082
vt -0.1012015 0.00871067
vt 0.1012015 0.00871067
vt 0.1012015 0
vt -0.1012015 0
vt 0.1012015 0.0196082
vt -0.1012015 0.0196082
vt -0.1012015 -0.008710672
vt 0.1012015 -0.008710672
vt 0.1012015 0.0392164
vt -0.1012015 0.0392164
vt -0.1012015 -0.01742134
vt 0.1012015 -0.01742134
vt 0.1012015 0.0588246
vt -0.1012015 0.0588246
vt -0.1012015 -0.02613201
vt 0.1012015 -0.02613201
vt 0.1012015 0.07843279
vt -0.1012015 0.07843279
vt -0.1012015 -0.03484268
vt 0.1012015 -0.03484268
vt 0.1012015 0.09804099
vt -0.1012015 0.09804099
vt -0.1012015 -0.04355335
vt 0.1012015 -0.04355335
vt 0.04355335 -0.09804099
vt 0.03484268 -0.09804099
vt 0.04355335 -0.07843279
vt 0.03484268 -0.07843279
vt 0.02613201 -0.09804099
vt 0.02613201 -0.0588246
vt 0.03484268 -0.0588246
vt 0.01742134 -0.09804099
vt 0.01742134 -0.0392164
vt 0.02613201 -0.0392164
vt 0.008710671 -0.09804099
vt 0.008710671 -0.0196082
vt 0.01742134 -0.0196082
vt 0 -0.09804099
vt 0 0
vt 0.008710671 0
vt -0.008710671 -0.09804099
vt -0.008710671 0.0196082
vt 0 0.0196082
vt -0.01742134 -0.09804099
vt -0.01742134 0.03921639
vt -0.008710671 0.03921639
vt -0.02613201 -0.09804099
vt -0.02613201 0.05882459
vt -0.01742134 0.05882459
vt -0.03484268 -0.09804099
vt -0.03484268 0.07843279
vt -0.02613201 0.07843279
vt -0.04355335 -0.09804099
vt -0.04355335 0.09804099
vt -0.03484268 0.09804099
vt -0.04355335 -0.07843279
vt -0.03484268 -0.07843279
vt -0.02613201 -0.0588246
vt -0.03484268 -0.0588246
vt -0.01742134 -0.0392164
vt -0.02613201 -0.0392164
vt -0.008710671 -0.0196082
vt -0.01742134 -0.0196082
vt -0.008710671 0
vt 0.008710671 0.0196082
vt 0.01742134 0.03921639
vt 0.008710671 0.03921639
vt 0.02613201 0.05882459
vt 0.01742134 0.05882459
vt 0.03484268 0.07843279
vt 0.02613201 0.07843279
vt 0.04355335 0.09804099
vt 0.03484268 0.09804099

vn 0.5000001 -0.8660253 0
vn -1.732051 -1 0
vn 0 0 -0.1
vn 0 0 0.1
vn -0.5000001 0.8660253 0

usemtl ProBuilderDefault
f 130/228/13 132/231/13 134/230/13
f 134/230/13 136/234/13 138/233/13
f 138/233/13 140/237/13 142/236/13
f 142/236/13 144/240/13 146/239/13
f 146/239/13 148/243/13 150/242/13
f 150/242/13 152/246/13 154/245/13
f 154/245/13 156/249/13 158/248/13
f 158/248/13 160/252/13 162/251/13
f 162/251/13 164/255/13 166/254/13
f 133/258/14 131/259/14 129/257/14
f 137/260/14 135/261/14 133/258/14
f 141/262/14 139/263/14 137/260/14
f 145/239/14 143/264/14 141/262/14
f 149/265/14 147/243/14 145/239/14
f 153/266/14 151/267/14 149/265/14
f 157/268/14 155/269/14 153/266/14
f 161/270/14 159/271/14 157/268/14
f 165/272/14 163/273/14 161/270/14
f 128/186/11 126/184/11 125/183/11
f 125/183/11 127/185/11 128/186/11
f 130/190/12 128/188/12 127/187/12
f 127/187/12 129/189/12 130/190/12
f 132/192/11 130/186/11 129/185/11
f 129/185/11 131/191/11 132/192/11
f 134/194/12 132/190/12 131/189/12
f 131/189/12 133/193/12 134/194/12
f 136/196/11 134/192/11 133/191/11
f 133/191/11 135/195/11 136/196/11
f 138/198/12 136/194/12 135/193/12
f 135/193/12 137/197/12 138/198/12
f 140/200/11 138/196/11 137/195/11
f 137/195/11 139/199/11 140/200/11
f 142/202/12 140/198/12 139/197/12
f 139/197/12 141/201/12 142/202/12
f 144/204/11 142/200/11 141/199/11
f 141/199/11 143/203/11 144/204/11
f 146/203/12 144/202/12 143/201/12
f 143/201/12 145/204/12 146/203/12
f 148/206/11 146/204/11 145/203/11
f 145/203/11 147/205/11 148/206/11
f 150/208/12 148/203/12 147/204/12
f 147/204/12 149/207/12 150/208/12
f 152/210/11 150/206/11 149/205/11
f 149/205/11 151/209/11 152/210/11
f 154/212/12 152/208/12 151/207/12
f 151/207/12 153/211/12 154/212/12
f 156/214/11 154/210/11 153/209/11
f 153/209/11 155/213/11 156/214/11
f 158/216/12 156/212/12 155/211/12
f 155/211/12 157/215/12 158/216/12
f 160/218/11 158/214/11 157/213/11
f 157/213/11 159/217/11 160/218/11
f 162/220/12 160/216/12 159/215/12
f 159/215/12 161/219/12 162/220/12
f 164/222/11 162/218/11 161/217/11
f 161/217/11 163/221/11 164/222/11
f 166/224/12 164/220/12 163/219/12
f 163/219/12 165/223/12 166/224/12
f 130/228/13 167/226/13 126/225/13
f 126/225/13 128/227/13 130/228/13
f 134/230/13 168/229/13 167/226/13
f 167/226/13 130/228/13 134/230/13
f 138/233/13 169/232/13 168/229/13
f 168/229/13 134/230/13 138/233/13
f 142/236/13 170/235/13 169/232/13
f 169/232/13 138/233/13 142/236/13
f 146/239/13 171/238/13 170/235/13
f 170/235/13 142/236/13 146/239/13
f 150/242/13 172/241/13 171/238/13
f 171/238/13 146/239/13 150/242/13
f 154/245/13 173/244/13 172/241/13
f 172/241/13 150/242/13 154/245/13
f 158/248/13 174/247/13 173/244/13
f 173/244/13 154/245/13 158/248/13
f 162/251/13 175/250/13 174/247/13
f 174/247/13 158/248/13 162/251/13
f 166/254/13 176/253/13 175/250/13
f 175/250/13 162/251/13 166/254/13
f 127/256/14 125/253/14 177/250/14
f 177/250/14 129/257/14 127/256/14
f 129/257/14 177/250/14 178/247/14
f 178/247/14 133/258/14 129/257/14
f 133/258/14 178/247/14 179/244/14
f 179/244/14 137/260/14 133/258/14
f 137/260/14 179/244/14 180/241/14
f 180/241/14 141/262/14 137/260/14
f 141/262/14 180/241/14 181/238/14
f 181/238/14 145/239/14 141/262/14
f 145/239/14 181/238/14 182/235/14
f 182/235/14 149/265/14 145/239/14
f 149/265/14 182/235/14 183/232/14
f 183/232/14 153/266/14 149/265/14
f 153/266/14 183/232/14 184/229/14
f 184/229/14 157/268/14 153/266/14
f 157/268/14 184/229/14 185/226/14
f 185/226/14 161/270/14 157/268/14
f 161/270/14 185/226/14 186/225/14
f 186/225/14 165/272/14 161/270/14
f 165/222/15 186/184/15 176/183/15
f 176/183/15 166/221/15 165/222/15

g Blade_5
v -28.61145 5.692804 1.05386
v -28.61145 5.692804 1.03362
v -28.61145 5.653587 1.05386
v -28.61145 5.653587 1.03362
v -28.62016 5.653587 1.05386
v -28.62016 5.653587 1.03362
v -28.62016 5.614371 1.05386
v -28.62016 5.614371 1.03362
v -28.62887 5.614371 1.05386
v -28.62887 5.614371 1.03362
v -28.62887 5.575155 1.05386
v -28.62887 5.575155 1.03362
v -28.63758 5.575155 1.05386
v -28.63758 5.575155 1.03362
v -28.63758 5.535938 1.05386
v -28.63758 5.535938 1.03362
v -28.64629 5.535938 1.05386
v -28.64629 5.535938 1.03362
v -28.64629 5.496722 1.05386
v -28.64629 5.496722 1.03362
v -28.655 5.496722 1.05386
v -28.655 5.496722 1.03362
v -28.655 5.457505 1.05386
v -28.655 5.457505 1.03362
v -28.66371 5.457505 1.05386
v -28.66371 5.457505 1.03362
v -28.66371 5.418289 1.05386
v -28.66371 5.418289 1.03362
v -28.67242 5.418289 1.05386
v -28.67242 5.418289 1.03362
v -28.67242 5.379073 1.05386
v -28.67242 5.379073 1.03362
v -28.68113 5.379073 1.05386
v -28.68113 5.379073 1.03362
v -28.68113 5.339856 1.05386
v -28.68113 5.339856 1.03362
v -28.68984 5.339856 1.05386
v -28.68984 5.339856 1.03362
v -28.68984 5.30064 1.05386
v -28.68984 5.30064 1.03362
v -28.69855 5.30064 1.05386
v -28.69855 5.30064 1.03362
v -28.62016 5.692804 1.03362
v -28.62887 5.692804 1.03362
v -28.63758 5.692804 1.03362
v -28.64629 5.692804 1.03362
v -28.655 5.692804 1.03362
v -28.66371 5.692804 1.03362
v -28.67242 5.692804 1.03362
v -28.68113 5.692804 1.03362
v -28.68984 5.692804 1.03362
v -28.69855 5.692804 1.03362
v -28.62016 5.692804 1.05386
v -28.62887 5.692804 1.05386
v -28.63758 5.692804 1.05386
v -28.64629 5.692804 1.05386
v -28.655 5.692804 1.05386
v -28.66371 5.692804 1.05386
v -28.67242 5.692804 1.05386
v -28.68113 5.692804 1.05386
v -28.68984 5.692804 1.05386
v -28.69855 5.692804 1.05386

vt 0.1012015 -0.09804099
vt -0.1012015 -0.09804099
vt 0.1012015 -0.07843279
vt -0.1012015 -0.07843279
vt -0.1012015 0.04355335
vt 0.1012015 0.04355335
vt -0.1012015 0.03484268
vt 0.1012015 0.03484268
vt 0.1012015 -0.0588246
vt -0.1012015 -0.0588246
vt -0.1012015 0.02613201
vt 0.1012015 0.02613201
vt 0.1012015 -0.0392164
vt -0.1012015 -0.0392164
vt -0.1012015 0.01742134
vt 0.1012015 0.01742134
vt 0.1012015 -0.0196082
vt -0.1012015 -0.0196082
vt -0.1012015 0.00871067
vt 0.1012015 0.00871067
vt 0.1012015 0
vt -0.1012015 0
vt 0.1012015 0.0196082
vt -0.1012015 0.0196082
vt -0.1012015 -0.008710672
vt 0.1012015 -0.008710672
vt 0.1012015 0.0392164
vt -0.1012015 0.0392164
vt -0.1012015 -0.01742134
vt 0.1012015 -0.01742134
vt 0.1012015 0.0588246
vt -0.1012015 0.0588246
vt -0.1012015 -0.02613201
vt 0.1012015 -0.02613201
vt 0.1012015 0.07843279
vt -0.1012015 0.07843279
vt -0.1012015 -0.03484268
vt 0.1012015 -0.03484268
vt 0.1012015 0.09804099
vt -0.1012015 0.09804099
vt -0.1012015 -0.04355335
vt 0.1012015 -0.04355335
vt 0.04355335 -0.09804099
vt 0.03484268 -0.09804099
vt 0.04355335 -0.07843279
vt 0.03484268 -0.07843279
vt 0.02613201 -0.09804099
vt 0.02613201 -0.0588246
vt 0.03484268 -0.0588246
vt 0.01742134 -0.09804099
vt 0.01742134 -0.0392164
vt 0.02613201 -0.0392164
vt 0.008710671 -0.09804099
vt 0.008710671 -0.0196082
vt 0.01742134 -0.0196082
vt 0 -0.09804099
vt 0 0
vt 0.008710671 0
vt -0.008710671 -0.09804099
vt -0.008710671 0.0196082
vt 0 0.0196082
vt -0.01742134 -0.09804099
vt -0.01742134 0.03921639
vt -0.008710671 0.03921639
vt -0.02613201 -0.09804099
vt -0.02613201 0.05882459
vt -0.01742134 0.05882459
vt -0.03484268 -0.09804099
vt -0.03484268 0.07843279
vt -0.02613201 0.07843279
vt -0.04355335 -0.09804099
vt -0.04355335 0.09804099
vt -0.03484268 0.09804099
vt -0.04355335 -0.07843279
vt -0.03484268 -0.07843279
vt -0.02613201 -0.0588246
vt -0.03484268 -0.0588246
vt -0.01742134 -0.0392164
vt -0.02613201 -0.0392164
vt -0.008710671 -0.0196082
vt -0.01742134 -0.0196082
vt -0.008710671 0
vt 0.008710671 0.0196082
vt 0.01742134 0.03921639
vt 0.008710671 0.03921639
vt 0.02613201 0.05882459
vt 0.01742134 0.05882459
vt 0.03484268 0.07843279
vt 0.02613201 0.07843279
vt 0.04355335 0.09804099
vt 0.03484268 0.09804099

vn 1 0 -1.192093E-07
vn 0 -2 0
vn 1.192093E-08 0 -0.1
vn -1.192093E-08 0 0.1
vn -1 0 1.192093E-07

usemtl ProBuilderDefault
f 192/319/18 194/322/18 196/321/18
f 196/321/18 198/325/18 200/324/18
f 200/324/18 202/328/18 204/327/18
f 204/327/18 206/331/18 208/330/18
f 208/330/18 210/334/18 212/333/18
f 212/333/18 214/337/18 216/336/18
f 216/336/18 218/340/18 220/339/18
f 220/339/18 222/343/18 224/342/18
f 224/342/18 226/346/18 228/345/18
f 195/349/19 193/350/19 191/348/19
f 199/351/19 197/352/19 195/349/19
f 203/353/19 201/354/19 199/351/19
f 207/330/19 205/355/19 203/353/19
f 211/356/19 209/334/19 207/330/19
f 215/357/19 213/358/19 211/356/19
f 219/359/19 217/360/19 215/357/19
f 223/361/19 221/362/19 219/359/19
f 227/363/19 225/364/19 223/361/19
f 190/277/16 188/275/16 187/274/16
f 187/274/16 189/276/16 190/277/16
f 192/281/17 190/279/17 189/278/17
f 189/278/17 191/280/17 192/281/17
f 194/283/16 192/277/16 191/276/16
f 191/276/16 193/282/16 194/283/16
f 196/285/17 194/281/17 193/280/17
f 193/280/17 195/284/17 196/285/17
f 198/287/16 196/283/16 195/282/16
f 195/282/16 197/286/16 198/287/16
f 200/289/17 198/285/17 197/284/17
f 197/284/17 199/288/17 200/289/17
f 202/291/16 200/287/16 199/286/16
f 199/286/16 201/290/16 202/291/16
f 204/293/17 202/289/17 201/288/17
f 201/288/17 203/292/17 204/293/17
f 206/295/16 204/291/16 203/290/16
f 203/290/16 205/294/16 206/295/16
f 208/294/17 206/293/17 205/292/17
f 205/292/17 207/295/17 208/294/17
f 210/297/16 208/295/16 207/294/16
f 207/294/16 209/296/16 210/297/16
f 212/299/17 210/294/17 209/295/17
f 209/295/17 211/298/17 212/299/17
f 214/301/16 212/297/16 211/296/16
f 211/296/16 213/300/16 214/301/16
f 216/303/17 214/299/17 213/298/17
f 213/298/17 215/302/17 216/303/17
f 218/305/16 216/301/16 215/300/16
f 215/300/16 217/304/16 218/305/16
f 220/307/17 218/303/17 217/302/17
f 217/302/17 219/306/17 220/307/17
f 222/309/16 220/305/16 219/304/16
f 219/304/16 221/308/16 222/309/16
f 224/311/17 222/307/17 221/306/17
f 221/306/17 223/310/17 224/311/17
f 226/313/16 224/309/16 223/308/16
f 223/308/16 225/312/16 226/313/16
f 228/315/17 226/311/17 225/310/17
f 225/310/17 227/314/17 228/315/17
f 192/319/18 229/317/18 188/316/18
f 188/316/18 190/318/18 192/319/18
f 196/321/18 230/320/18 229/317/18
f 229/317/18 192/319/18 196/321/18
f 200/324/18 231/323/18 230/320/18
f 230/320/18 196/321/18 200/324/18
f 204/327/18 232/326/18 231/323/18
f 231/323/18 200/324/18 204/327/18
f 208/330/18 233/329/18 232/326/18
f 232/326/18 204/327/18 208/330/18
f 212/333/18 234/332/18 233/329/18
f 233/329/18 208/330/18 212/333/18
f 216/336/18 235/335/18 234/332/18
f 234/332/18 212/333/18 216/336/18
f 220/339/18 236/338/18 235/335/18
f 235/335/18 216/336/18 220/339/18
f 224/342/18 237/341/18 236/338/18
f 236/338/18 220/339/18 224/342/18
f 228/345/18 238/344/18 237/341/18
f 237/341/18 224/342/18 228/345/18
f 189/347/19 187/344/19 239/341/19
f 239/341/19 191/348/19 189/347/19
f 191/348/19 239/341/19 240/338/19
f 240/338/19 195/349/19 191/348/19
f 195/349/19 240/338/19 241/335/19
f 241/335/19 199/351/19 195/349/19
f 199/351/19 241/335/19 242/332/19
f 242/332/19 203/353/19 199/351/19
f 203/353/19 242/332/19 243/329/19
f 243/329/19 207/330/19 203/353/19
f 207/330/19 243/329/19 244/326/19
f 244/326/19 211/356/19 207/330/19
f 211/356/19 244/326/19 245/323/19
f 245/323/19 215/357/19 211/356/19
f 215/357/19 245/323/19 246/320/19
f 246/320/19 219/359/19 215/357/19
f 219/359/19 246/320/19 247/317/19
f 247/317/19 223/361/19 219/359/19
f 223/361/19 247/317/19 248/316/19
f 248/316/19 227/363/19 223/361/19
f 227/313/20 248/275/20 238/274/20
f 238/274/20 228/312/20 227/313/20

g Blade_6
v -28.56789 5.76824 1.05386
v -28.56789 5.76824 1.03362
v -28.53393 5.748632 1.05386
v -28.53393 5.748632 1.03362
v -28.53829 5.741088 1.05386
v -28.53829 5.741088 1.03362
v -28.50432 5.72148 1.05386
v -28.50432 5.72148 1.03362
v -28.50868 5.713937 1.05386
v -28.50868 5.713937 1.03362
v -28.47472 5.694328 1.05386
v -28.47472 5.694328 1.03362
v -28.47907 5.686785 1.05386
v -28.47907 5.686785 1.03362
v -28.44511 5.667177 1.05386
v -28.44511 5.667177 1.03362
v -28.44946 5.659633 1.05386
v -28.44946 5.659633 1.03362
v -28.4155 5.640025 1.05386
v -28.4155 5.640025 1.03362
v -28.41986 5.632481 1.05386
v -28.41986 5.632481 1.03362
v -28.38589 5.612873 1.05386
v -28.38589 5.612873 1.03362
v -28.39025 5.605329 1.05386
v -28.39025 5.605329 1.03362
v -28.35629 5.585721 1.05386
v -28.35629 5.585721 1.03362
v -28.36064 5.578177 1.05386
v -28.36064 5.578177 1.03362
v -28.32668 5.558569 1.05386
v -28.32668 5.558569 1.03362
v -28.33104 5.551025 1.05386
v -28.33104 5.551025 1.03362
v -28.29707 5.531417 1.05386
v -28.29707 5.531417 1.03362
v -28.30143 5.523874 1.05386
v -28.30143 5.523874 1.03362
v -28.26747 5.504265 1.05386
v -28.26747 5.504265 1.03362
v -28.27182 5.496722 1.05386
v -28.27182 5.496722 1.03362
v -28.57225 5.760697 1.03362
v -28.5766 5.753153 1.03362
v -28.58096 5.745609 1.03362
v -28.58531 5.738066 1.03362
v -28.58967 5.730522 1.03362
v -28.59402 5.722979 1.03362
v -28.59838 5.715435 1.03362
v -28.60274 5.707891 1.03362
v -28.60709 5.700347 1.03362
v -28.61145 5.692804 1.03362
v -28.57225 5.760697 1.05386
v -28.5766 5.753153 1.05386
v -28.58096 5.745609 1.05386
v -28.58531 5.738066 1.05386
v -28.58967 5.730522 1.05386
v -28.59402 5.722979 1.05386
v -28.59838 5.715435 1.05386
v -28.60274 5.707891 1.05386
v -28.60709 5.700347 1.05386
v -28.61145 5.692804 1.05386

vt 0.1012015 -0.09804099
vt -0.1012015 -0.09804099
vt 0.1012015 -0.07843279
vt -0.1012015 -0.07843279
vt -0.1012015 0.04355335
vt 0.1012015 0.04355335
vt -0.1012015 0.03484268
vt 0.1012015 0.03484268
vt 0.1012015 -0.0588246
vt -0.1012015 -0.0588246
vt -0.1012015 0.02613201
vt 0.1012015 0.02613201
vt 0.1012015 -0.0392164
vt -0.1012015 -0.0392164
vt -0.1012015 0.01742134
vt 0.1012015 0.01742134
vt 0.1012015 -0.0196082
vt -0.1012015 -0.0196082
vt -0.1012015 0.00871067
vt 0.1012015 0.00871067
vt 0.1012015 0
vt -0.1012015 0
vt 0.1012015 0.0196082
vt -0.1012015 0.0196082
vt -0.1012015 -0.008710672
vt 0.1012015 -0.008710672
vt 0.1012015 0.0392164
vt -0.1012015 0.0392164
vt -0.1012015 -0.01742134
vt 0.1012015 -0.01742134
vt 0.1012015 0.0588246
vt -0.1012015 0.0588246
vt -0.1012015 -0.02613201
vt 0.1012015 -0.02613201
vt 0.1012015 0.07843279
vt -0.1012015 0.07843279
vt -0.1012015 -0.03484268
vt 0.1012015 -0.03484268
vt 0.1012015 0.09804099
vt -0.1012015 0.09804099
vt -0.1012015 -0.04355335
vt 0.1012015 -0.04355335
vt 0.04355335 -0.09804099
vt 0.03484268 -0.09804099
vt 0.04355335 -0.07843279
vt 0.03484268 -0.07843279
vt 0.02613201 -0.09804099
vt 0.02613201 -0.0588246
vt 0.03484268 -0.0588246
vt 0.01742134 -0.09804099
vt 0.01742134 -0.0392164
vt 0.02613201 -0.0392164
vt 0.008710671 -0.09804099
vt 0.008710671 -0.0196082
vt 0.01742134 -0.0196082
vt 0 -0.09804099
vt 0 0
vt 0.008710671 0
vt -0.008710671 -0.09804099
vt -0.008710671 0.0196082
vt 0 0.0196082
vt -0.01742134 -0.09804099
vt -0.01742134 0.03921639
vt -0.008710671 0.03921639
vt -0.02613201 -0.09804099
vt -0.02613201 0.05882459
vt -0.01742134 0.05882459
vt -0.03484268 -0.09804099
vt -0.03484268 0.07843279
vt -0.02613201 0.07843279
vt -0.04355335 -0.09804099
vt -0.04355335 0.09804099
vt -0.03484268 0.09804099
vt -0.04355335 -0.07843279
vt -0.03484268 -0.07843279
vt -0.02613201 -0.0588246
vt -0.03484268 -0.0588246
vt -0.01742134 -0.0392164
vt -0.02613201 -0.0392164
vt -0.008710671 -0.0196082
vt -0.01742134 -0.0196082
vt -0.008710671 0
vt 0.008710671 0.0196082
vt 0.01742134 0.03921639
vt 0.008710671 0.03921639
vt 0.02613201 0.05882459
vt 0.01742134 0.05882459
vt 0.03484268 0.07843279
vt 0.02613201 0.07843279
vt 0.04355335 0.09804099
vt 0.03484268 0.09804099

vn 0.5 0.8660255 -1.192093E-07
vn 1.732051 -1 0
vn 1.192093E-08 0 -0.1
vn -1.192093E-08 0 0.1
vn -0.5 -0.8660255 1.192093E-07

usemtl ProBuilderDefault
f 254/410/23 256/413/23 258/412/23
f 258/412/23 260/416/23 262/415/23
f 262/415/23 264/419/23 266/418/23
f 266/418/23 268/422/23 270/421/23
f 270/421/23 272/425/23 274/424/23
f 274/424/23 276/428/23 278/427/23
f 278/427/23 280/431/23 282/430/23
f 282/430/23 284/434/23 286/433/23
f 286/433/23 288/437/23 290/436/23
f 257/440/24 255/441/24 253/439/24
f 261/442/24 259/443/24 257/440/24
f 265/444/24 263/445/24 261/442/24
f 269/421/24 267/446/24 265/444/24
f 273/447/24 271/425/24 269/421/24
f 277/448/24 275/449/24 273/447/24
f 281/450/24 279/451/24 277/448/24
f 285/452/24 283/453/24 281/450/24
f 289/454/24 287/455/24 285/452/24
f 252/368/21 250/366/21 249/365/21
f 249/365/21 251/367/21 252/368/21
f 254/372/22 252/370/22 251/369/22
f 251/369/22 253/371/22 254/372/22
f 256/374/21 254/368/21 253/367/21
f 253/367/21 255/373/21 256/374/21
f 258/376/22 256/372/22 255/371/22
f 255/371/22 257/375/22 258/376/22
f 260/378/21 258/374/21 257/373/21
f 257/373/21 259/377/21 260/378/21
f 262/380/22 260/376/22 259/375/22
f 259/375/22 261/379/22 262/380/22
f 264/382/21 262/378/21 261/377/21
f 261/377/21 263/381/21 264/382/21
f 266/384/22 264/380/22 263/379/22
f 263/379/22 265/383/22 266/384/22
f 268/386/21 266/382/21 265/381/21
f 265/381/21 267/385/21 268/386/21
f 270/385/22 268/384/22 267/383/22
f 267/383/22 269/386/22 270/385/22
f 272/388/21 270/386/21 269/385/21
f 269/385/21 271/387/21 272/388/21
f 274/390/22 272/385/22 271/386/22
f 271/386/22 273/389/22 274/390/22
f 276/392/21 274/388/21 273/387/21
f 273/387/21 275/391/21 276/392/21
f 278/394/22 276/390/22 275/389/22
f 275/389/22 277/393/22 278/394/22
f 280/396/21 278/392/21 277/391/21
f 277/391/21 279/395/21 280/396/21
f 282/398/22 280/394/22 279/393/22
f 279/393/22 281/397/22 282/398/22
f 284/400/21 282/396/21 281/395/21
f 281/395/21 283/399/21 284/400/21
f 286/402/22 284/398/22 283/397/22
f 283/397/22 285/401/22 286/402/22
f 288/404/21 286/400/21 285/399/21
f 285/399/21 287/403/21 288/404/21
f 290/406/22 288/402/22 287/401/22
f 287/401/22 289/405/22 290/406/22
f 254/410/23 291/408/23 250/407/23
f 250/407/23 252/409/23 254/410/23
f 258/412/23 292/411/23 291/408/23
f 291/408/23 254/410/23 258/412/23
f 262/415/23 293/414/23 292/411/23
f 292/411/23 258/412/23 262/415/23
f 266/418/23 294/417/23 293/414/23
f 293/414/23 262/415/23 266/418/23
f 270/421/23 295/420/23 294/417/23
f 294/417/23 266/418/23 270/421/23
f 274/424/23 296/423/23 295/420/23
f 295/420/23 270/421/23 274/424/23
f 278/427/23 297/426/23 296/423/23
f 296/423/23 274/424/23 278/427/23
f 282/430/23 298/429/23 297/426/23
f 297/426/23 278/427/23 282/430/23
f 286/433/23 299/432/23 298/429/23
f 298/429/23 282/430/23 286/433/23
f 290/436/23 300/435/23 299/432/23
f 299/432/23 286/433/23 290/436/23
f 251/438/24 249/435/24 301/432/24
f 301/432/24 253/439/24 251/438/24
f 253/439/24 301/432/24 302/429/24
f 302/429/24 257/440/24 253/439/24
f 257/440/24 302/429/24 303/426/24
f 303/426/24 261/442/24 257/440/24
f 261/442/24 303/426/24 304/423/24
f 304/423/24 265/444/24 261/442/24
f 265/444/24 304/423/24 305/420/24
f 305/420/24 269/421/24 265/444/24
f 269/421/24 305/420/24 306/417/24
f 306/417/24 273/447/24 269/421/24
f 273/447/24 306/417/24 307/414/24
f 307/414/24 277/448/24 273/447/24
f 277/448/24 307/414/24 308/411/24
f 308/411/24 281/450/24 277/448/24
f 281/450/24 308/411/24 309/408/24
f 309/408/24 285/452/24 281/450/24
f 285/452/24 309/408/24 310/407/24
f 310/407/24 289/454/24 285/452/24
f 289/404/25 310/366/25 300/365/25
f 300/365/25 290/403/25 289/404/25

g Blade_1
v -28.61145 5.843677 1.05386
v -28.61145 5.843677 1.03362
v -28.57748 5.863286 1.05386
v -28.57748 5.863286 1.03362
v -28.57313 5.855742 1.05386
v -28.57313 5.855742 1.03362
v -28.53917 5.87535 1.05386
v -28.53917 5.87535 1.03362
v -28.53481 5.867806 1.05386
v -28.53481 5.867806 1.03362
v -28.50085 5.887414 1.05386
v -28.50085 5.887414 1.03362
v -28.49649 5.879871 1.05386
v -28.49649 5.879871 1.03362
v -28.46253 5.899479 1.05386
v -28.46253 5.899479 1.03362
v -28.45818 5.891935 1.05386
v -28.45818 5.891935 1.03362
v -28.42421 5.911543 1.05386
v -28.42421 5.911543 1.03362
v -28.41986 5.904 1.05386
v -28.41986 5.904 1.03362
v -28.38589 5.923608 1.05386
v -28.38589 5.923608 1.03362
v -28.38154 5.916064 1.05386
v -28.38154 5.916064 1.03362
v -28.34758 5.935673 1.05386
v -28.34758 5.935673 1.03362
v -28.34322 5.928129 1.05386
v -28.34322 5.928129 1.03362
v -28.30926 5.947737 1.05386
v -28.30926 5.947737 1.03362
v -28.3049 5.940193 1.05386
v -28.3049 5.940193 1.03362
v -28.27094 5.959802 1.05386
v -28.27094 5.959802 1.03362
v -28.26659 5.952258 1.05386
v -28.26659 5.952258 1.03362
v -28.23262 5.971866 1.05386
v -28.23262 5.971866 1.03362
v -28.22827 5.964323 1.05386
v -28.22827 5.964323 1.03362
v -28.60709 5.836133 1.03362
v -28.60274 5.82859 1.03362
v -28.59838 5.821046 1.03362
v -28.59402 5.813502 1.03362
v -28.58967 5.805959 1.03362
v -28.58531 5.798415 1.03362
v -28.58096 5.790872 1.03362
v -28.5766 5.783328 1.03362
v -28.57225 5.775784 1.03362
v -28.56789 5.76824 1.03362
v -28.60709 5.836133 1.05386
v -28.60274 5.82859 1.05386
v -28.59838 5.821046 1.05386
v -28.59402 5.813502 1.05386
v -28.58967 5.805959 1.05386
v -28.58531 5.798415 1.05386
v -28.58096 5.790872 1.05386
v -28.5766 5.783328 1.05386
v -28.57225 5.775784 1.05386
v -28.56789 5.76824 1.05386

vt 0.1012015 -0.09804099
vt -0.1012015 -0.09804099
vt 0.1012015 -0.07843279
vt -0.1012015 -0.07843279
vt -0.1012015 0.04355335
vt 0.1012015 0.04355335
vt -0.1012015 0.03484268
vt 0.1012015 0.03484268
vt 0.1012015 -0.0588246
vt -0.1012015 -0.0588246
vt -0.1012015 0.02613201
vt 0.1012015 0.02613201
vt 0.1012015 -0.0392164
vt -0.1012015 -0.0392164
vt -0.1012015 0.01742134
vt 0.1012015 0.01742134
vt 0.1012015 -0.0196082
vt -0.1012015 -0.0196082
vt -0.1012015 0.00871067
vt 0.1012015 0.00871067
vt 0.1012015 0
vt -0.1012015 0
vt 0.1012015 0.0196082
vt -0.1012015 0.0196082
vt -0.1012015 -0.008710672
vt 0.1012015 -0.008710672
vt 0.1012015 0.0392164
vt -0.1012015 0.0392164
vt -0.1012015 -0.01742134
vt 0.1012015 -0.01742134
vt 0.1012015 0.0588246
vt -0.1012015 0.0588246
vt -0.1012015 -0.02613201
vt 0.1012015 -0.02613201
vt 0.1012015 0.07843279
vt -0.1012015 0.07843279
vt -0.1012015 -0.03484268
vt 0.1012015 -0.03484268
vt 0.1012015 0.09804099
vt -0.1012015 0.09804099
vt -0.1012015 -0.04355335
vt 0.1012015 -0.04355335
vt 0.04355335 -0.09804099
vt 0.03484268 -0.09804099
vt 0.04355335 -0.07843279
vt 0.03484268 -0.07843279
vt 0.02613201 -0.09804099
vt 0.02613201 -0.0588246
vt 0.03484268 -0.0588246
vt 0.01742134 -0.09804099
vt 0.01742134 -0.0392164
vt 0.02613201 -0.0392164
vt 0.008710671 -0.09804099
vt 0.008710671 -0.0196082
vt 0.01742134 -0.0196082
vt 0 -0.09804099
vt 0 0
vt 0.008710671 0
vt -0.008710671 -0.09804099
vt -0.008710671 0.0196082
vt 0 0.0196082
vt -0.01742134 -0.09804099
vt -0.01742134 0.03921639
vt -0.008710671 0.03921639
vt -0.02613201 -0.09804099
vt -0.02613201 0.05882459
vt -0.01742134 0.05882459
vt -0.03484268 -0.09804099
vt -0.03484268 0.07843279
vt -0.02613201 0.07843279
vt -0.04355335 -0.09804099
vt -0.04355335 0.09804099
vt -0.03484268 0.09804099
vt -0.04355335 -0.07843279
vt -0.03484268 -0.07843279
vt -0.02613201 -0.0588246
vt -0.03484268 -0.0588246
vt -0.01742134 -0.0392164
vt -0.02613201 -0.0392164
vt -0.008710671 -0.0196082
vt -0.01742134 -0.0196082
vt -0.008710671 0
vt 0.008710671 0.0196082
vt 0.01742134 0.03921639
vt 0.008710671 0.03921639
vt 0.02613201 0.05882459
vt 0.01742134 0.05882459
vt 0.03484268 0.07843279
vt 0.02613201 0.07843279
vt 0.04355335 0.09804099
vt 0.03484268 0.09804099

vn -0.5 0.8660255 -1.192093E-07
vn 1.732051 0.9999999 0
vn 1.192093E-08 0 -0.1
vn -1.192093E-08 0 0.1
vn 0.5 -0.8660255 1.192093E-07

usemtl ProBuilderDefault
f 316/501/28 318/504/28 320/503/28
f 320/503/28 322/507/28 324/506/28
f 324/506/28 326/510/28 328/509/28
f 328/509/28 330/513/28 332/512/28
f 332/512/28 334/516/28 336/515/28
f 336/515/28 338/519/28 340/518/28
f 340/518/28 342/522/28 344/521/28
f 344/521/28 346/525/28 348/524/28
f 348/524/28 350/528/28 352/527/28
f 319/531/29 317/532/29 315/530/29
f 323/533/29 321/534/29 319/531/29
f 327/535/29 325/536/29 323/533/29
f 331/512/29 329/537/29 327/535/29
f 335/538/29 333/516/29 331/512/29
f 339/539/29 337/540/29 335/538/29
f 343/541/29 341/542/29 339/539/29
f 347/543/29 345/544/29 343/541/29
f 351/545/29 349/546/29 347/543/29
f 314/459/26 312/457/26 311/456/26
f 311/456/26 313/458/26 314/459/26
f 316/463/27 314/461/27 313/460/27
f 313/460/27 315/462/27 316/463/27
f 318/465/26 316/459/26 315/458/26
f 315/458/26 317/464/26 318/465/26
f 320/467/27 318/463/27 317/462/27
f 317/462/27 319/466/27 320/467/27
f 322/469/26 320/465/26 319/464/26
f 319/464/26 321/468/26 322/469/26
f 324/471/27 322/467/27 321/466/27
f 321/466/27 323/470/27 324/471/27
f 326/473/26 324/469/26 323/468/26
f 323/468/26 325/472/26 326/473/26
f 328/475/27 326/471/27 325/470/27
f 325/470/27 327/474/27 328/475/27
f 330/477/26 328/473/26 327/472/26
f 327/472/26 329/476/26 330/477/26
f 332/476/27 330/475/27 329/474/27
f 329/474/27 331/477/27 332/476/27
f 334/479/26 332/477/26 331/476/26
f 331/476/26 333/478/26 334/479/26
f 336/481/27 334/476/27 333/477/27
f 333/477/27 335/480/27 336/481/27
f 338/483/26 336/479/26 335/478/26
f 335/478/26 337/482/26 338/483/26
f 340/485/27 338/481/27 337/480/27
f 337/480/27 339/484/27 340/485/27
f 342/487/26 340/483/26 339/482/26
f 339/482/26 341/486/26 342/487/26
f 344/489/27 342/485/27 341/484/27
f 341/484/27 343/488/27 344/489/27
f 346/491/26 344/487/26 343/486/26
f 343/486/26 345/490/26 346/491/26
f 348/493/27 346/489/27 345/488/27
f 345/488/27 347/492/27 348/493/27
f 350/495/26 348/491/26 347/490/26
f 347/490/26 349/494/26 350/495/26
f 352/497/27 350/493/27 349/492/27
f 349/492/27 351/496/27 352/497/27
f 316/501/28 353/499/28 312/498/28
f 312/498/28 314/500/28 316/501/28
f 320/503/28 354/502/28 353/499/28
f 353/499/28 316/501/28 320/503/28
f 324/506/28 355/505/28 354/502/28
f 354/502/28 320/503/28 324/506/28
f 328/509/28 356/508/28 355/505/28
f 355/505/28 324/506/28 328/509/28
f 332/512/28 357/511/28 356/508/28
f 356/508/28 328/509/28 332/512/28
f 336/515/28 358/514/28 357/511/28
f 357/511/28 332/512/28 336/515/28
f 340/518/28 359/517/28 358/514/28
f 358/514/28 336/515/28 340/518/28
f 344/521/28 360/520/28 359/517/28
f 359/517/28 340/518/28 344/521/28
f 348/524/28 361/523/28 360/520/28
f 360/520/28 344/521/28 348/524/28
f 352/527/28 362/526/28 361/523/28
f 361/523/28 348/524/28 352/527/28
f 313/529/29 311/526/29 363/523/29
f 363/523/29 315/530/29 313/529/29
f 315/530/29 363/523/29 364/520/29
f 364/520/29 319/531/29 315/530/29
f 319/531/29 364/520/29 365/517/29
f 365/517/29 323/533/29 319/531/29
f 323/533/29 365/517/29 366/514/29
f 366/514/29 327/535/29 323/533/29
f 327/535/29 366/514/29 367/511/29
f 367/511/29 331/512/29 327/535/29
f 331/512/29 367/511/29 368/508/29
f 368/508/29 335/538/29 331/512/29
f 335/538/29 368/508/29 369/505/29
f 369/505/29 339/539/29 335/538/29
f 339/539/29 369/505/29 370/502/29
f 370/502/29 343/541/29 339/539/29
f 343/541/29 370/502/29 371/499/29
f 371/499/29 347/543/29 343/541/29
f 347/543/29 371/499/29 372/498/29
f 372/498/29 351/545/29 347/543/29
f 351/495/30 372/457/30 362/456/30
f 362/456/30 352/494/30 351/495/30

