# ProBuilder 6.0.5
# https://unity3d.com/unity/features/worldbuilding/probuilder
# 01.07.2025 22:12:04

mtllib ./Key.mtl
o Key

g Key
v -1.95 0.1548612 1.303068
v -1.603507 0.1531998 1.303068
v -1.604014 0.06602496 1.303068
v -1.773629 0.05633987 1.303068
v -1.798044 -0.119787 1.303068
v -1.622826 -0.1103752 1.303068
v -1.656065 -0.1994428 1.303068
v -1.802599 -0.1885972 1.303068
v -1.817066 -0.2692805 1.303068
v -1.560896 -0.2880556 1.303068
v -1.551598 -0.365303 1.303068
v -1.80874 -0.3665465 1.303068
v -1.557095 -0.4195723 1.303068
v -1.552544 -0.463717 1.303068
v -1.961437 -0.4764038 1.303068
v -1.866266 0.06990935 1.303068
v -1.966399 0.06251162 1.303068
v -1.80874 -0.3665465 1.25
v -1.557095 -0.4195723 1.25
v -1.552544 -0.463717 1.25
v -1.961437 -0.4764038 1.25
v -1.966399 0.06251163 1.25
v -1.95 0.1548612 1.25
v -1.866266 0.06990936 1.25
v -1.603507 0.1531998 1.25
v -1.604014 0.06602497 1.25
v -1.773629 0.05633988 1.25
v -1.798044 -0.119787 1.25
v -1.622826 -0.1103752 1.25
v -1.656065 -0.1994428 1.25
v -1.802599 -0.1885972 1.25
v -1.817066 -0.2692805 1.25
v -1.560896 -0.2880556 1.25
v -1.551598 -0.365303 1.25

vt 0 0
vt -1.732468 0.008306742
vt -1.729931 0.4441808
vt -0.881855 0.4926063
vt -0.7597809 1.373241
vt -1.635868 1.326181
vt -1.469673 1.771519
vt -0.7370033 1.717292
vt -0.664669 2.120708
vt -1.945518 2.214583
vt -1.992008 2.60082
vt -0.7062988 2.607038
vt -1.964527 2.872167
vt -1.987282 3.09289
vt 0.05718231 3.156324
vt -0.4186707 0.4247589
vt 0.08199692 0.4617475
vt 0.7062988 2.607038
vt 1.964527 2.872167
vt 1.987282 3.09289
vt -0.05718231 3.156324
vt -0.08199692 0.4617475
vt 0.4186707 0.4247589
vt 1.732468 0.008306742
vt 1.729931 0.4441808
vt 0.881855 0.4926063
vt 0.7597809 1.373241
vt 1.635868 1.326181
vt 1.469673 1.771519
vt 0.7370033 1.717292
vt 0.664669 2.120708
vt 1.945518 2.214583
vt 1.992008 2.60082
vt -1.228663 0
vt -2.514521 0
vt -1.228663 0.2653387
vt -2.514521 0.2653387
vt -3.058483 0
vt -3.280376 0
vt -3.058483 0.2653387
vt -3.280376 0.2653387
vt 1.890408 0
vt -0.1550398 0
vt 1.890408 0.2653387
vt -0.1550398 0.2653387
vt 0.4689715 0
vt 0.4689715 0.2653387
vt 0 0.2653387
vt 0.3862374 0
vt -0.1157946 0
vt 0.3862374 0.2653387
vt -0.1157946 0.2653387
vt 0.001776136 0
vt -0.4341054 0
vt 0.001776136 0.2653387
vt -0.4341054 0.2653387
vt 1.701796 0
vt 0.8523386 0
vt 1.701796 0.2653387
vt 0.8523386 0.2653387
vt -1.732488 0
vt -1.732488 0.2653387
vt -0.3668551 0
vt -1.25591 0
vt -0.3668551 0.2653387
vt -1.25591 0.2653387
vt -0.6850291 0
vt -1.562379 0
vt -0.6850291 0.2653387
vt -1.562379 0.2653387
vt -0.6705242 0
vt -1.145863 0
vt -0.6705242 0.2653387
vt -1.145863 0.2653387
vt 1.596423 0
vt 0.8617493 0
vt 1.596423 0.2653387
vt 0.8617493 0.2653387
vt 3.119308 0
vt 0.3466043 0
vt 3.119308 0.2653387
vt 0.3466043 0.2653387
vt -1.560261 0
vt -1.970111 0
vt -1.560261 0.2653387
vt -1.970111 0.2653387
vt -0.8179052 0
vt -2.10219 0
vt -0.8179052 0.2653387
vt -2.10219 0.2653387
vt -2.431209 0
vt -2.820234 0
vt -2.431209 0.2653387
vt -2.820234 0.2653387
vt 1.979407 0
vt 0.6936826 0
vt 1.979407 0.2653387
vt 0.6936826 0.2653387

vn 0 -2.384186E-08 0.2
vn 0 2.384186E-08 -0.2
vn 0.04123765 0.1957025 2.332955E-08
vn 0.1989456 0.02050957 2.444931E-09
vn 0.006202468 -0.1999038 -2.383039E-08
vn -0.1969192 0.03496883 4.168609E-09
vn 0.01473556 -0.1994565 -2.377706E-08
vn 0.1999966 -0.001163974 -1.387565E-10
vn 0.0114015 -0.1996748 -2.380309E-08
vn 0.0009589382 0.1999977 2.384158E-08
vn 0.1981057 -0.02746155 -3.273671E-09
vn -0.01072762 0.1997121 2.380754E-08
vn 0.1873772 -0.06992699 -8.335945E-09
vn -0.01476236 -0.1994545 -2.377682E-08
vn -0.1970326 0.03432412 4.091754E-09
vn 0.1968605 -0.03529795 -4.207843E-09
vn 0.01461909 0.199465 2.377808E-08
vn 0.1985668 0.02390067 2.849181E-09
vn 0.0009672301 -0.1999977 -2.384158E-08

usemtl RedKeyMat2
f 14/14/1 13/13/1 12/12/1
f 15/15/1 14/14/1 12/12/1
f 16/16/1 1/1/1 17/17/1
f 4/4/1 3/3/1 2/2/1
f 1/1/1 4/4/1 2/2/1
f 1/1/1 16/16/1 4/4/1
f 5/5/1 4/4/1 16/16/1
f 7/7/1 6/6/1 5/5/1
f 7/7/1 5/5/1 8/8/1
f 16/16/1 8/8/1 5/5/1
f 16/16/1 15/15/1 8/8/1
f 15/15/1 9/9/1 8/8/1
f 12/12/1 9/9/1 15/15/1
f 12/12/1 10/10/1 9/9/1
f 11/11/1 10/10/1 12/12/1
f 18/18/2 33/32/2 34/33/2
f 32/31/2 33/32/2 18/18/2
f 21/21/2 32/31/2 18/18/2
f 31/30/2 32/31/2 21/21/2
f 31/30/2 21/21/2 24/23/2
f 28/27/2 31/30/2 24/23/2
f 31/30/2 28/27/2 30/29/2
f 28/27/2 29/28/2 30/29/2
f 24/23/2 27/26/2 28/27/2
f 27/26/2 24/23/2 23/1/2
f 25/24/2 27/26/2 23/1/2
f 25/24/2 26/25/2 27/26/2
f 22/22/2 23/1/2 24/23/2
f 18/18/2 20/20/2 21/21/2
f 18/18/2 19/19/2 20/20/2
f 13/37/3 19/35/3 18/34/3
f 18/34/3 12/36/3 13/37/3
f 14/41/4 20/39/4 19/38/4
f 19/38/4 13/40/4 14/41/4
f 15/45/5 21/43/5 20/42/5
f 20/42/5 14/44/5 15/45/5
f 1/48/6 23/1/6 22/46/6
f 22/46/6 17/47/6 1/48/6
f 17/52/7 22/50/7 24/49/7
f 24/49/7 16/51/7 17/52/7
f 3/56/8 26/54/8 25/53/8
f 25/53/8 2/55/8 3/56/8
f 4/60/9 27/58/9 26/57/9
f 26/57/9 3/59/9 4/60/9
f 2/62/10 25/61/10 23/1/10
f 23/1/10 1/48/10 2/62/10
f 5/66/11 28/64/11 27/63/11
f 27/63/11 4/65/11 5/66/11
f 6/70/12 29/68/12 28/67/12
f 28/67/12 5/69/12 6/70/12
f 7/74/13 30/72/13 29/71/13
f 29/71/13 6/73/13 7/74/13
f 8/78/14 31/76/14 30/75/14
f 30/75/14 7/77/14 8/78/14
f 16/82/15 24/80/15 21/79/15
f 21/79/15 15/81/15 16/82/15
f 9/86/16 32/84/16 31/83/16
f 31/83/16 8/85/16 9/86/16
f 10/90/17 33/88/17 32/87/17
f 32/87/17 9/89/17 10/90/17
f 11/94/18 34/92/18 33/91/18
f 33/91/18 10/93/18 11/94/18
f 12/98/19 18/96/19 34/95/19
f 34/95/19 11/97/19 12/98/19

