# ProBuilder 6.0.5
# https://unity3d.com/unity/features/worldbuilding/probuilder
# 29.06.2025 23:00:46

mtllib ./Prism2.mtl
o Prism2

g Prism
v -47.12753 4.585964 0.991333
v -47.22289 4.651908 0.9303938
v -46.82334 5.181878 1.019422
v -47.18753 4.637217 0.8591703
v -46.78798 5.167187 0.948199
v -47.09218 4.571273 0.9201096

vt 0.10576 -0.3175407
vt -0.02521836 -0.3175407
vt 0.04027081 0.3489039
vt -0.03062151 -0.3184849
vt -0.1114836 -0.3184849
vt -0.03062151 0.3511697
vt -0.1114836 0.3511697
vt 0.02521836 -0.3175407
vt -0.10576 -0.3175407
vt -0.04027081 0.3489039
vt 0.1114836 -0.3263615
vt 0.03062151 -0.3263615
vt 0.1114836 0.3432931
vt 0.03062151 0.3432931
vt 0.10576 -0.03062151
vt -0.02521836 -0.03062151
vt 0.10576 -0.1114836
vt -0.02521836 -0.1114836

vn -0.4372431 0.1816814 0.880801
vn -0.6729184 0.5836661 -0.4544389
vn 0.4372431 -0.1816814 -0.880801
vn 0.7761881 -0.4184517 0.4716251
vn -0.5279884 -0.8446938 -0.08786789

usemtl Krystall
f 3/3/1 2/2/1 1/1/1
f 5/10/3 6/9/3 4/8/3
f 3/6/2 5/7/2 4/5/2
f 4/5/2 2/4/2 3/6/2
f 5/13/4 3/14/4 1/12/4
f 1/12/4 6/11/4 5/13/4
f 2/16/5 4/18/5 6/17/5
f 6/17/5 1/15/5 2/16/5

g Prism (6)
v -47.16262 4.596251 0.9983185
v -47.22823 4.663635 1.08948
v -46.89597 5.191006 0.8446855
v -47.28804 4.676816 1.036688
v -46.95579 5.204187 0.7918937
v -47.22243 4.609432 0.9455268

vt 0.10576 -0.3175407
vt -0.02521836 -0.3175407
vt 0.04027081 0.3489039
vt -0.03062151 -0.3184849
vt -0.1114836 -0.3184849
vt -0.03062151 0.3511697
vt -0.1114836 0.3511697
vt 0.02521836 -0.3175407
vt -0.10576 -0.3175407
vt -0.04027081 0.3489039
vt 0.1114836 -0.3263615
vt 0.03062151 -0.3263615
vt 0.1114836 0.3432931
vt 0.03062151 0.3432931
vt 0.10576 -0.03062151
vt -0.02521836 -0.03062151
vt 0.10576 -0.1114836
vt -0.02521836 -0.1114836

vn 0.7397312 -0.1630011 0.6528616
vn -0.4545606 0.5943331 0.6634325
vn -0.7397312 0.1630011 -0.6528616
vn 0.5424445 -0.42967 -0.7218985
vn -0.4493252 -0.8418751 0.29892

usemtl Krystall_2
f 9/21/6 8/20/6 7/19/6
f 11/28/8 12/27/8 10/26/8
f 9/24/7 11/25/7 10/23/7
f 10/23/7 8/22/7 9/24/7
f 11/31/9 9/32/9 7/30/9
f 7/30/9 12/29/9 11/31/9
f 8/34/10 10/36/10 12/35/10
f 12/35/10 7/33/10 8/34/10

g Prism (1)
v -47.25325 4.603068 1.126873
v -47.13148 4.628394 1.085832
v -47.3709 5.241555 0.9627704
v -47.11105 4.651379 1.160619
v -47.35048 5.264541 1.037558
v -47.23283 4.626054 1.201661

vt 0.10576 -0.3175407
vt -0.02521836 -0.3175407
vt 0.04027081 0.3489039
vt -0.03062151 -0.3184849
vt -0.1114836 -0.3184849
vt -0.03062151 0.3511697
vt -0.1114836 0.3511697
vt 0.02521836 -0.3175407
vt -0.10576 -0.3175407
vt -0.04027081 0.3489039
vt 0.1114836 -0.3263615
vt 0.03062151 -0.3263615
vt 0.1114836 0.3432931
vt 0.03062151 0.3432931
vt 0.10576 -0.03062151
vt -0.02521836 -0.03062151
vt 0.10576 -0.1114836
vt -0.02521836 -0.1114836

vn -0.2525906 -0.2842543 -0.9248773
vn 0.8990902 0.284263 -0.3329141
vn 0.2525906 0.2842543 0.9248773
vn -0.951489 -0.1005935 0.2907751
vn 0.2678998 -0.9390491 0.2154446

usemtl Krystall_3
f 15/39/11 14/38/11 13/37/11
f 17/46/13 18/45/13 16/44/13
f 15/42/12 17/43/12 16/41/12
f 16/41/12 14/40/12 15/42/12
f 17/49/14 15/50/14 13/48/14
f 13/48/14 18/47/14 17/49/14
f 14/52/15 16/54/15 18/53/15
f 18/53/15 13/51/15 14/52/15

g Prism (7)
v -47.21037 4.580593 0.9643537
v -47.20776 4.63429 0.8449168
v -47.22766 5.215198 1.177464
v -47.12695 4.635687 0.8473139
v -47.14685 5.216594 1.179861
v -47.12956 4.58199 0.9667507

vt 0.10576 -0.3175407
vt -0.02521836 -0.3175407
vt 0.04027081 0.3489039
vt -0.03062151 -0.3184849
vt -0.1114836 -0.3184849
vt -0.03062151 0.3511697
vt -0.1114836 0.3511697
vt 0.02521836 -0.3175407
vt -0.10576 -0.3175407
vt -0.04027081 0.3489039
vt 0.1114836 -0.3263615
vt 0.03062151 -0.3263615
vt 0.1114836 0.3432931
vt 0.03062151 0.3432931
vt 0.10576 -0.03062151
vt -0.02521836 -0.03062151
vt 0.10576 -0.1114836
vt -0.02521836 -0.1114836

vn -0.9994115 -0.0172732 -0.02964365
vn 0.01713727 0.4971839 -0.8674761
vn 0.9994115 0.0172732 0.02964365
vn -0.02259503 -0.3188172 0.947547
vn 0.02790396 -0.9119374 -0.4093795

usemtl Krystall
f 21/57/16 20/56/16 19/55/16
f 23/64/18 24/63/18 22/62/18
f 21/60/17 23/61/17 22/59/17
f 22/59/17 20/58/17 21/60/17
f 23/67/19 21/68/19 19/66/19
f 19/66/19 24/65/19 23/67/19
f 20/70/20 22/72/20 24/71/20
f 24/71/20 19/69/20 20/70/20

g Prism (2)
v -47.14172 4.578909 1.030368
v -47.18917 4.610729 0.9125065
v -47.06039 4.989056 1.035583
v -47.11666 4.596772 0.8795465
v -46.98788 4.975098 1.002623
v -47.06921 4.564951 0.9974076

vt 0.1057605 -0.3175403
vt -0.02521785 -0.3175403
vt 0.04027131 0.09546386
vt -0.03062271 -0.3175714
vt -0.1114848 -0.3175714
vt -0.03062271 0.1005928
vt -0.1114848 0.1005928
vt 0.02521785 -0.3175403
vt -0.1057605 -0.3175403
vt -0.04027131 0.09546386
vt 0.1114848 -0.3301853
vt 0.03062271 -0.3301853
vt 0.1114848 0.08797894
vt 0.03062271 0.08797894
vt 0.1057605 -0.03062271
vt -0.02521785 -0.03062271
vt 0.1057605 -0.1114848
vt -0.02521785 -0.1114848

vn -0.8966947 0.1726101 0.4076081
vn -0.3179725 0.3894429 -0.8644235
vn 0.8966947 -0.1726101 -0.4076081
vn 0.3976406 -0.09045375 0.9130719
vn -0.2543503 -0.954559 -0.1553159

usemtl Krystall_2
f 27/75/21 26/74/21 25/73/21
f 29/82/23 30/81/23 28/80/23
f 27/78/22 29/79/22 28/77/22
f 28/77/22 26/76/22 27/78/22
f 29/85/24 27/86/24 25/84/24
f 25/84/24 30/83/24 29/85/24
f 26/88/25 28/90/25 30/89/25
f 30/89/25 25/87/25 26/88/25

g Prism (8)
v -47.18751 4.586349 0.9464066
v -47.30131 4.645991 0.9718615
v -47.05269 4.981979 0.9591348
v -47.31523 4.653286 0.8925412
v -47.06661 4.989275 0.8798145
v -47.20143 4.593645 0.8670863

vt 0.1057605 -0.3175403
vt -0.02521785 -0.3175403
vt 0.04027131 0.09546386
vt -0.03062271 -0.3175714
vt -0.1114848 -0.3175714
vt -0.03062271 0.1005928
vt -0.1114848 0.1005928
vt 0.02521785 -0.3175403
vt -0.1057605 -0.3175403
vt -0.04027131 0.09546386
vt 0.1114848 -0.3301853
vt 0.03062271 -0.3301853
vt 0.1114848 0.08797894
vt 0.03062271 0.08797894
vt 0.1057605 -0.03062271
vt -0.02521785 -0.03062271
vt 0.1057605 -0.1114848
vt -0.02521785 -0.1114848

vn 0.172135 -0.09021759 0.9809334
vn -0.7854179 0.5884518 0.1919464
vn -0.172135 0.09021759 -0.9809334
vn 0.9308179 -0.3110225 -0.1919458
vn -0.4642073 -0.8857266 -1.85892E-06

usemtl Krystall_3
f 33/93/26 32/92/26 31/91/26
f 35/100/28 36/99/28 34/98/28
f 33/96/27 35/97/27 34/95/27
f 34/95/27 32/94/27 33/96/27
f 35/103/29 33/104/29 31/102/29
f 31/102/29 36/101/29 35/103/29
f 32/106/30 34/108/30 36/107/30
f 36/107/30 31/105/30 32/106/30

g Prism (3)
v -47.28664 4.648754 1.03516
v -47.19556 4.612726 0.9482003
v -47.21729 5.01988 0.8553865
v -47.13763 4.628188 1.002462
v -47.15937 5.035342 0.9096485
v -47.22871 4.664216 1.089422

vt 0.1057605 -0.3175403
vt -0.02521785 -0.3175403
vt 0.04027131 0.09546386
vt -0.03062271 -0.3175714
vt -0.1114848 -0.3175714
vt -0.03062271 0.1005928
vt -0.1114848 0.1005928
vt 0.02521785 -0.3175403
vt -0.1057605 -0.3175403
vt -0.04027131 0.09546386
vt 0.1114848 -0.3301853
vt 0.03062271 -0.3301853
vt 0.1114848 0.08797894
vt 0.03062271 0.08797894
vt 0.1057605 -0.03062271
vt -0.02521785 -0.03062271
vt 0.1057605 -0.1114848
vt -0.02521785 -0.1114848

vn -0.7163361 -0.1912132 -0.6710442
vn 0.6958166 -0.1241126 -0.7074148
vn 0.7163361 0.1912132 0.6710442
vn -0.677765 0.4192363 0.6040496
vn -0.05763201 -0.942218 0.3300058

usemtl Krystall
f 39/111/31 38/110/31 37/109/31
f 41/118/33 42/117/33 40/116/33
f 39/114/32 41/115/32 40/113/32
f 40/113/32 38/112/32 39/114/32
f 41/121/34 39/122/34 37/120/34
f 37/120/34 42/119/34 41/121/34
f 38/124/35 40/126/35 42/125/35
f 42/125/35 37/123/35 38/124/35

g Prism (9)
v -47.12465 4.594177 0.8927889
v -47.18908 4.60002 0.7789003
v -47.17432 5.008568 0.8668351
v -47.11875 4.605978 0.7394267
v -47.104 5.014526 0.8273615
v -47.05433 4.600135 0.8533153

vt 0.1057605 -0.3175403
vt -0.02521785 -0.3175403
vt 0.04027131 0.09546386
vt -0.03062271 -0.3175714
vt -0.1114848 -0.3175714
vt -0.03062271 0.1005928
vt -0.1114848 0.1005928
vt 0.02521785 -0.3175403
vt -0.1057605 -0.3175403
vt -0.04027131 0.09546386
vt 0.1114848 -0.3301853
vt 0.03062271 -0.3301853
vt 0.1114848 0.08797894
vt 0.03062271 0.08797894
vt 0.1057605 -0.03062271
vt -0.02521785 -0.03062271
vt 0.1057605 -0.1114848
vt -0.02521785 -0.1114848

vn -0.8696389 -0.07367712 0.4881598
vn -0.4924271 0.2000914 -0.8470414
vn 0.8696389 0.07367712 -0.4881598
vn 0.4791822 0.1119668 0.8705446
vn 0.04228573 -0.9962838 -0.07503691

usemtl Krystall_2
f 45/129/36 44/128/36 43/127/36
f 47/136/38 48/135/38 46/134/38
f 45/132/37 47/133/37 46/131/37
f 46/131/37 44/130/37 45/132/37
f 47/139/39 45/140/39 43/138/39
f 43/138/39 48/137/39 47/139/39
f 44/142/40 46/144/40 48/143/40
f 48/143/40 43/141/40 44/142/40

g Prism (4)
v -47.18123 4.657857 1.065112
v -47.28693 4.628643 1.13673
v -47.42106 4.985301 0.9644886
v -47.31759 4.587069 1.074519
v -47.45172 4.943727 0.9022777
v -47.21189 4.616283 1.002901

vt 0.1057605 -0.3175403
vt -0.02521785 -0.3175403
vt 0.04027131 0.09546386
vt -0.03062271 -0.3175714
vt -0.1114848 -0.3175714
vt -0.03062271 0.1005928
vt -0.1114848 0.1005928
vt 0.02521785 -0.3175403
vt -0.1057605 -0.3175403
vt -0.04027131 0.09546386
vt 0.1114848 -0.3301853
vt 0.03062271 -0.3301853
vt 0.1114848 0.08797894
vt 0.03062271 0.08797894
vt 0.1057605 -0.03062271
vt -0.02521785 -0.03062271
vt 0.1057605 -0.1114848
vt -0.02521785 -0.1114848

vn 0.3791743 0.5141339 0.769346
vn -0.8679568 -0.09058311 0.4883091
vn -0.3791743 -0.5141339 -0.769346
vn 0.7261548 0.3499945 -0.5917795
vn 0.4527198 -0.8282023 0.3303419

usemtl Krystall_3
f 51/147/41 50/146/41 49/145/41
f 53/154/43 54/153/43 52/152/43
f 51/150/42 53/151/42 52/149/42
f 52/149/42 50/148/42 51/150/42
f 53/157/44 51/158/44 49/156/44
f 49/156/44 54/155/44 53/157/44
f 50/160/45 52/162/45 54/161/45
f 54/161/45 49/159/45 50/160/45

g Prism (10)
v -47.31422 4.69648 1.013023
v -47.28512 4.63195 1.123225
v -47.38828 5.001674 1.289126
v -47.36203 4.607739 1.129356
v -47.46519 4.977463 1.295256
v -47.39112 4.67227 1.019154

vt 0.1057605 -0.3175403
vt -0.02521785 -0.3175403
vt 0.04027131 0.09546386
vt -0.03062271 -0.3175714
vt -0.1114848 -0.3175714
vt -0.03062271 0.1005928
vt -0.1114848 0.1005928
vt 0.02521785 -0.3175403
vt -0.1057605 -0.3175403
vt -0.04027131 0.09546386
vt 0.1114848 -0.3301853
vt 0.03062271 -0.3301853
vt 0.1114848 0.08797894
vt 0.03062271 0.08797894
vt 0.1057605 -0.03062271
vt -0.02521785 -0.03062271
vt 0.1057605 -0.1114848
vt -0.02521785 -0.1114848

vn 0.9511082 0.2994073 -0.07581794
vn 0.1858209 -0.3586347 0.9147959
vn -0.9511082 -0.2994073 0.07581794
vn -0.2530258 0.614563 -0.7471882
vn 0.2145598 -0.8170822 -0.5351081

usemtl Krystall
f 57/165/46 56/164/46 55/163/46
f 59/172/48 60/171/48 58/170/48
f 57/168/47 59/169/47 58/167/47
f 58/167/47 56/166/47 57/168/47
f 59/175/49 57/176/49 55/174/49
f 55/174/49 60/173/49 59/175/49
f 56/178/50 58/180/50 60/179/50
f 60/179/50 55/177/50 56/178/50

g Prism (5)
v -47.06984 4.7051 1.038627
v -47.10044 4.647003 1.151957
v -46.98367 5.02053 1.299279
v -47.17651 4.673523 1.145012
v -47.05975 5.04705 1.292334
v -47.14591 4.73162 1.031682

vt 0.1057605 -0.3175403
vt -0.02521785 -0.3175403
vt 0.04027131 0.09546386
vt -0.03062271 -0.3175714
vt -0.1114848 -0.3175714
vt -0.03062271 0.1005928
vt -0.1114848 0.1005928
vt 0.02521785 -0.3175403
vt -0.1057605 -0.3175403
vt -0.04027131 0.09546386
vt 0.1114848 -0.3301853
vt 0.03062271 -0.3301853
vt 0.1114848 0.08797894
vt 0.03062271 0.08797894
vt 0.1057605 -0.03062271
vt -0.02521785 -0.03062271
vt 0.1057605 -0.1114848
vt -0.02521785 -0.1114848

vn 0.9407758 -0.3279711 0.08588338
vn -0.1922621 -0.3074591 0.9319358
vn -0.9407758 0.3279711 -0.08588338
vn 0.2692164 0.5687117 -0.777232
vn -0.2456862 -0.8340807 -0.4939106

usemtl Krystall_2
f 63/183/51 62/182/51 61/181/51
f 65/190/53 66/189/53 64/188/53
f 63/186/52 65/187/52 64/185/52
f 64/185/52 62/184/52 63/186/52
f 65/193/54 63/194/54 61/192/54
f 61/192/54 66/191/54 65/193/54
f 62/196/55 64/198/55 66/197/55
f 66/197/55 61/195/55 62/196/55

g Prism (11)
v -47.08422 4.561544 0.7833137
v -47.12658 4.684715 0.7970951
v -46.73614 4.76359 0.6698215
v -47.15164 4.6847 0.7202137
v -46.7612 4.763575 0.5929401
v -47.10928 4.561529 0.7064323

vt 0.1057605 -0.3175403
vt -0.02521785 -0.3175403
vt 0.04027131 0.09546386
vt -0.03062271 -0.3175714
vt -0.1114848 -0.3175714
vt -0.03062271 0.1005928
vt -0.1114848 0.1005928
vt 0.02521785 -0.3175403
vt -0.1057605 -0.3175403
vt -0.04027131 0.09546386
vt 0.1114848 -0.3301853
vt 0.03062271 -0.3301853
vt 0.1114848 0.08797894
vt 0.03062271 0.08797894
vt 0.1057605 -0.03062271
vt -0.02521785 -0.03062271
vt 0.1057605 -0.1114848
vt -0.02521785 -0.1114848

vn 0.3098907 0.0001932681 0.9507722
vn -0.1793952 0.9820498 0.05827168
vn -0.3098907 -0.0001932681 -0.9507722
vn 0.4594402 -0.8755248 -0.14957
vn -0.8940777 -0.3400941 0.291481

usemtl Krystall_3
f 69/201/56 68/200/56 67/199/56
f 71/208/58 72/207/58 70/206/58
f 69/204/57 71/205/57 70/203/57
f 70/203/57 68/202/57 69/204/57
f 71/211/59 69/212/59 67/210/59
f 67/210/59 72/209/59 71/211/59
f 68/214/60 70/216/60 72/215/60
f 72/215/60 67/213/60 68/214/60

